<svg width="100" height="71" viewBox="0 0 100 71" fill="none" xmlns="http://www.w3.org/2000/svg">
<rect width="100" height="71" fill="white"/>
<rect x="20" y="6" width="59" height="63" fill="#1E1E1E"/>
<path d="M84 6V6C86.7891 6 88.1836 6 89.3345 6.2763C92.9909 7.15415 95.8459 10.0091 96.7237 13.6655C97 14.8164 97 16.2109 97 19V56C97 58.7891 97 60.1836 96.7237 61.3345C95.8459 64.9909 92.9909 67.8459 89.3345 68.7237C88.1836 69 86.7891 69 84 69V69V6Z" fill="#1E1E1E"/>
<path d="M2 19C2 16.2109 2 14.8164 2.2763 13.6655C3.15415 10.0091 6.00906 7.15415 9.66555 6.2763C10.8164 6 12.2109 6 15 6V6V69V69C12.2109 69 10.8164 69 9.66555 68.7237C6.00906 67.8459 3.15415 64.9909 2.2763 61.3345C2 60.1836 2 58.7891 2 56V19Z" fill="#1E1E1E"/>
<path d="M48.9079 36.7418C44.6543 39.1176 40.4322 41.4699 36.2155 43.8317C34.415 44.8402 32.6219 45.8623 30.8342 46.8933C30.4704 47.1032 30.111 47.3448 29.8102 47.6348C29.1537 48.2675 28.982 49.0575 29.256 49.9201C29.5205 50.753 30.1688 51.1454 30.9881 51.2806C31.2991 51.3319 31.6211 51.3306 31.938 51.3306C43.7756 51.333 55.6132 51.3341 67.4509 51.331C68.9268 51.3306 69.8535 50.4607 69.9589 49.039C70.0085 48.3707 69.7922 47.903 69.1763 47.5707C67.0808 46.4401 65.0128 45.2584 62.9163 44.1297C58.9247 41.9805 54.9206 39.8545 50.9218 37.7188C50.8595 37.6856 50.7969 37.6529 50.7358 37.6178C50.4062 37.4285 50.1222 37.1883 50.3375 36.7743C50.5508 36.3642 50.9138 36.4353 51.2541 36.6124C52.1928 37.1011 53.1312 37.5909 54.0622 38.094C58.9505 40.7353 63.8369 43.3801 68.7222 46.0267C69.0942 46.2282 69.4434 46.4729 69.82 46.6646C71.0093 47.27 71.2126 48.2961 71.0544 49.3892C70.7744 51.3243 69.4541 52.4772 67.5058 52.4783C55.5624 52.485 43.6189 52.4831 31.6754 52.4797C30.2176 52.4793 29.0001 52.0093 28.3229 50.6101C27.5865 49.0887 28.1386 47.2047 29.684 46.279C31.7716 45.0285 33.902 43.8486 36.0257 42.6591C40.827 39.9699 45.6354 37.2933 50.4409 34.6116C50.5333 34.56 50.6217 34.4997 50.7182 34.4576C51.0597 34.3084 51.4054 34.2928 51.5902 34.6638C51.7601 35.0047 51.5795 35.2695 51.2583 35.4452C50.4847 35.8684 49.7137 36.2962 48.9079 36.7418Z" fill="white"/>
<path d="M50.3672 28.6164C52.0433 27.9032 52.7106 26.5644 52.2304 24.9408C51.8937 23.8022 50.7255 23.0434 49.4335 23.1241C48.0743 23.209 47.2045 23.9296 46.9923 25.1756C46.9269 25.5598 46.7705 25.8311 46.3528 25.7796C45.9601 25.7312 45.8635 25.4234 45.8854 25.0708C45.9489 24.0445 46.4519 23.2659 47.2777 22.6947C49.1224 21.4188 51.8674 21.9639 52.9631 23.8102C54.1426 25.7978 53.3943 28.3542 51.3183 29.4273C51.2244 29.4759 51.1319 29.5429 51.0316 29.5608C50.2097 29.7071 49.8254 30.1419 49.9593 31.0159C50.0131 31.367 49.7965 31.6381 49.3946 31.6207C49.0275 31.6047 48.8767 31.3545 48.8708 31.0134C48.8625 30.5374 48.8734 30.0611 48.8649 29.5852C48.857 29.138 49.067 28.9046 49.5089 28.837C49.7861 28.7947 50.0555 28.7017 50.3672 28.6164Z" fill="white"/>
<path d="M50.749 32.0531C51.1278 31.9785 51.444 32.0849 51.4616 32.4343C51.4727 32.654 51.2886 32.9765 51.0949 33.0977C50.1858 33.6667 49.2437 34.1831 48.312 34.716C47.9881 34.9013 47.6483 34.9549 47.4344 34.59C47.2066 34.2013 47.4259 33.9276 47.774 33.7307C48.7541 33.1765 49.7328 32.6198 50.749 32.0531Z" fill="white"/>
<path d="M58 5C58 2.79086 54.4183 1 50 1C45.5817 1 42 2.79086 42 5" stroke="#1E1E1E" stroke-width="1.5"/>
</svg>
