<svg width="100" height="100" viewBox="0 0 100 100" fill="none" xmlns="http://www.w3.org/2000/svg">
<rect x="1" y="2" width="97" height="97" rx="11" fill="#1E1E1E"/>
<path d="M48.9265 49.626C41.8209 53.5948 34.7679 57.5243 27.7239 61.4698C24.7161 63.1544 21.7209 64.8617 18.7345 66.5841C18.1268 66.9346 17.5263 67.3383 17.0239 67.8227C15.9273 68.8796 15.6404 70.1993 16.0981 71.6403C16.54 73.0317 17.6229 73.6872 18.9916 73.913C19.5112 73.9988 20.0489 73.9964 20.5784 73.9966C40.353 74.0005 60.1276 74.0024 79.9023 73.9972C82.3678 73.9966 83.9159 72.5433 84.092 70.1685C84.1747 69.0521 83.8134 68.2708 82.7846 67.7156C79.2841 65.827 75.8295 63.853 72.3274 61.9674C65.6594 58.3773 58.9707 54.8258 52.2906 51.2582C52.1866 51.2026 52.0821 51.148 51.9799 51.0894C51.4293 50.7732 50.9549 50.3719 51.3146 49.6804C51.6709 48.9954 52.2773 49.114 52.8457 49.4099C54.4139 50.2262 55.9814 51.0445 57.5367 51.8849C65.7025 56.2972 73.8652 60.7152 82.0261 65.1364C82.6475 65.4731 83.2309 65.8818 83.8599 66.202C85.8466 67.2133 86.1861 68.9274 85.9219 70.7534C85.4542 73.986 83.2486 75.9119 79.994 75.9137C60.0426 75.9249 40.0912 75.9218 20.1398 75.916C17.7046 75.9153 15.6707 75.1303 14.5394 72.793C13.3092 70.2514 14.2316 67.1043 16.8131 65.5579C20.3005 63.4689 23.8593 61.4979 27.4068 59.5109C35.4273 55.0185 43.4597 50.5474 51.4873 46.0676C51.6416 45.9815 51.7894 45.8806 51.9505 45.8103C52.5209 45.5612 53.0984 45.535 53.4072 46.1547C53.6911 46.7243 53.3893 47.1666 52.8527 47.4601C51.5604 48.167 50.2724 48.8817 48.9265 49.626Z" fill="white"/>
<path d="M51.3641 36.0526C54.1641 34.8612 55.2788 32.6247 54.4767 29.9126C53.9141 28.0106 51.9627 26.7431 49.8045 26.8778C47.5339 27.0196 46.0809 28.2234 45.7265 30.3048C45.6173 30.9465 45.356 31.3999 44.6581 31.3138C44.0021 31.233 43.8408 30.7188 43.8773 30.1297C43.9835 28.4154 44.8237 27.1147 46.2032 26.1605C49.2847 24.0291 53.8703 24.9397 55.7006 28.0239C57.671 31.3441 56.4209 35.6146 52.953 37.4072C52.7961 37.4883 52.6417 37.6004 52.474 37.6302C51.101 37.8746 50.4591 38.601 50.6828 40.061C50.7726 40.6475 50.4108 41.1003 49.7394 41.0712C49.1261 41.0446 48.8743 40.6266 48.8644 40.0567C48.8506 39.2616 48.8687 38.466 48.8547 37.671C48.8414 36.924 49.1923 36.534 49.9304 36.4212C50.3934 36.3504 50.8435 36.1951 51.3641 36.0526Z" fill="white"/>
<path d="M52.0019 41.7936C52.6347 41.669 53.1629 41.8467 53.1924 42.4305C53.211 42.7974 52.9033 43.3361 52.5798 43.5386C51.0612 44.4892 49.4873 45.3518 47.931 46.242C47.3899 46.5515 46.8223 46.6411 46.465 46.0314C46.0844 45.3821 46.4508 44.9249 47.0323 44.596C48.6695 43.6702 50.3044 42.7402 52.0019 41.7936Z" fill="white"/>
</svg>
