<svg width="187" height="91" viewBox="0 0 187 91" fill="none" xmlns="http://www.w3.org/2000/svg">
<g clip-path="url(#clip0_6_45)">
<path d="M14.0146 1C16.5 1 18.7821 1.33892 20.8608 2.01677C22.9847 2.64942 24.8149 3.621 26.3514 4.9315C27.933 6.19681 29.1531 7.77844 30.0117 9.6764C30.9155 11.5292 31.3674 13.6983 31.3674 16.1837C31.3674 18.1269 31.0737 20.0248 30.4862 21.8776C29.9439 23.7304 29.0175 25.425 27.7071 26.9614C26.3966 28.4527 24.6793 29.6728 22.5554 30.6218C20.4767 31.5256 17.9009 31.9775 14.828 31.9775H7.57509V50.0081H1V1H14.0146ZM14.6924 25.6735C16.6356 25.6735 18.2398 25.3798 19.5051 24.7923C20.8156 24.2049 21.8324 23.4592 22.5554 22.5554C23.2785 21.6065 23.7982 20.5897 24.1145 19.5051C24.4308 18.4206 24.589 17.4038 24.589 16.4548C24.589 15.4607 24.4082 14.4439 24.0467 13.4045C23.7304 12.32 23.1881 11.3258 22.4199 10.422C21.6968 9.51824 20.7253 8.77261 19.5051 8.18515C18.3302 7.59768 16.8841 7.30395 15.1669 7.30395H7.57509V25.6735H14.6924ZM22.7588 29.4017L35.57 50.0081H27.9782L14.9636 29.605L22.7588 29.4017Z" fill="white"/>
<path d="M40.8223 35.7056C40.8223 32.9039 41.4775 30.3732 42.788 28.1138C44.1437 25.8543 45.9965 24.0693 48.3463 22.7588C50.6962 21.4483 53.3624 20.793 56.3449 20.793C59.4178 20.793 62.1066 21.4483 64.4112 22.7588C66.7159 24.0693 68.5009 25.8543 69.7662 28.1138C71.0315 30.3732 71.6642 32.9039 71.6642 35.7056C71.6642 38.5074 71.0315 41.0606 69.7662 43.3652C68.5009 45.6247 66.6933 47.4097 64.3435 48.7202C62.0388 50.0307 59.35 50.686 56.2771 50.686C53.2946 50.686 50.6284 50.0759 48.2786 48.8558C45.9739 47.5905 44.1437 45.8507 42.788 43.6364C41.4775 41.3769 40.8223 38.7333 40.8223 35.7056ZM47.1262 35.7734C47.1262 37.581 47.5329 39.2304 48.3463 40.7217C49.1598 42.1677 50.2443 43.3201 51.6 44.1787C53.0009 45.0373 54.5373 45.4666 56.2093 45.4666C57.9717 45.4666 59.5308 45.0373 60.8865 44.1787C62.2873 43.3201 63.3719 42.1677 64.1401 40.7217C64.9083 39.2304 65.2924 37.581 65.2924 35.7734C65.2924 33.9658 64.9083 32.339 64.1401 30.8929C63.3719 29.4017 62.2873 28.2267 60.8865 27.3681C59.5308 26.4643 57.9717 26.0124 56.2093 26.0124C54.4921 26.0124 52.9331 26.4643 51.5322 27.3681C50.1765 28.2719 49.092 29.4694 48.2786 30.9607C47.5103 32.4068 47.1262 34.011 47.1262 35.7734Z" fill="white"/>
<path d="M89.0795 51.0927C86.5489 51.0927 84.4475 50.3244 82.7755 48.788C81.1487 47.2064 80.2901 45.1728 80.1997 42.6874V21.9454H86.5037V40.4505C86.594 41.987 87.0233 43.2297 87.7916 44.1787C88.605 45.1276 89.8703 45.6247 91.5875 45.6699C93.1691 45.6699 94.57 45.218 95.7901 44.3142C97.0554 43.3653 98.0722 42.0999 98.8404 40.5183C99.6086 38.8915 99.9928 37.0613 99.9928 35.0278V21.9454H106.297V50.0081H100.535L99.9928 43.0941L100.332 44.3142C99.7894 45.6247 98.9534 46.7997 97.8237 47.839C96.7391 48.8332 95.4512 49.624 93.9599 50.2115C92.4687 50.7989 90.8419 51.0927 89.0795 51.0927Z" fill="white"/>
<path d="M133.742 50.686C131.619 50.686 129.562 50.1889 127.574 49.1947C125.631 48.2005 124.117 46.8674 123.033 45.1954L123.439 43.2297V63.4972H117.203V21.5387H122.626L123.507 28.7238L122.829 26.7581C124.185 25.0409 125.902 23.6174 127.981 22.4877C130.06 21.3579 132.387 20.793 134.963 20.793C137.584 20.793 139.933 21.4257 142.012 22.691C144.136 23.9563 145.808 25.7187 147.028 27.9782C148.248 30.2377 148.858 32.8813 148.858 35.909C148.858 38.9367 148.203 41.5577 146.893 43.772C145.582 45.9862 143.775 47.7034 141.47 48.9236C139.21 50.0985 136.635 50.686 133.742 50.686ZM132.522 45.6699C134.33 45.6699 135.979 45.2632 137.471 44.4498C139.007 43.5912 140.227 42.4389 141.131 40.9928C142.035 39.5015 142.487 37.8295 142.487 35.9767C142.487 34.0788 142.057 32.4068 141.199 30.9607C140.34 29.4694 139.188 28.2945 137.742 27.4359C136.341 26.5773 134.759 26.148 132.997 26.148C131.37 26.148 129.901 26.4643 128.591 27.097C127.28 27.7296 126.196 28.6108 125.337 29.7406C124.479 30.8251 123.869 32.0904 123.507 33.5365V38.2136C123.733 39.6597 124.275 40.9476 125.134 42.0773C125.992 43.2071 127.054 44.0883 128.32 44.7209C129.63 45.3536 131.031 45.6699 132.522 45.6699Z" fill="white"/>
<path d="M169.043 50.686C166.422 50.686 164.027 50.1211 161.858 48.9914C159.734 47.8616 158.039 46.2122 156.774 44.0431C155.554 41.8288 154.944 39.14 154.944 35.9767C154.944 32.8587 155.599 30.1699 156.909 27.9104C158.22 25.6057 159.96 23.8433 162.129 22.6232C164.343 21.4031 166.761 20.793 169.382 20.793C172.003 20.793 174.217 21.4031 176.025 22.6232C177.832 23.7982 179.21 25.199 180.159 26.8259L179.753 27.9104L180.363 21.9454H186.192V50.0081H179.888V42.6874L180.566 44.3142C180.385 44.7661 179.979 45.3536 179.346 46.0766C178.759 46.7545 177.945 47.4549 176.906 48.1779C175.912 48.901 174.759 49.511 173.449 50.0081C172.138 50.46 170.67 50.686 169.043 50.686ZM170.737 45.4666C172.319 45.4666 173.743 45.1728 175.008 44.5854C176.273 43.9979 177.313 43.1845 178.126 42.1451C178.985 41.0606 179.572 39.7727 179.888 38.2814V32.7909C179.527 31.4352 178.894 30.2603 177.99 29.2661C177.087 28.2267 176.002 27.4359 174.737 26.8936C173.471 26.3062 172.071 26.0124 170.534 26.0124C168.862 26.0124 167.326 26.4191 165.925 27.2326C164.524 28.046 163.394 29.1757 162.536 30.6218C161.722 32.0678 161.315 33.7625 161.315 35.7056C161.315 37.5132 161.745 39.1626 162.603 40.6539C163.462 42.1451 164.614 43.3201 166.06 44.1787C167.506 45.0373 169.065 45.4666 170.737 45.4666Z" fill="white"/>
<path d="M77.4007 76.3541C77.4007 74.3225 77.785 72.4144 78.5538 70.6298C79.3225 68.8178 80.3795 67.2254 81.7248 65.8527C83.0975 64.4799 84.6762 63.4092 86.4608 62.6405C88.2728 61.8443 90.1946 61.4462 92.2263 61.4462C94.2854 61.4462 96.2072 61.8443 97.9918 62.6405C99.7763 63.4092 101.355 64.4799 102.728 65.8527C104.1 67.2254 105.171 68.8178 105.94 70.6298C106.736 72.4144 107.134 74.3225 107.134 76.3541C107.134 78.3858 106.736 80.3076 105.94 82.1196C105.171 83.9042 104.1 85.4828 102.728 86.8556C101.355 88.2008 99.7763 89.2578 97.9918 90.0266C96.2072 90.7953 94.2854 91.1797 92.2263 91.1797C90.1946 91.1797 88.2728 90.8228 86.4608 90.1089C84.6762 89.3677 83.0975 88.3381 81.7248 87.0203C80.3795 85.675 79.3225 84.0964 78.5538 82.2843C77.785 80.4723 77.4007 78.4956 77.4007 76.3541ZM78.8421 76.3953C78.8421 78.2622 79.1852 80.0056 79.8716 81.6254C80.558 83.2453 81.5052 84.6729 82.7132 85.9084C83.9486 87.1438 85.3763 88.1047 86.9961 88.7911C88.616 89.4775 90.3319 89.8207 92.1439 89.8207C94.0383 89.8207 95.7954 89.4775 97.4152 88.7911C99.0625 88.1047 100.49 87.1438 101.698 85.9084C102.934 84.6729 103.908 83.2453 104.622 81.6254C105.336 79.9781 105.693 78.221 105.693 76.3541C105.693 74.4872 105.336 72.7438 104.622 71.124C103.936 69.4767 102.975 68.0353 101.739 66.7999C100.504 65.5644 99.0625 64.5897 97.4152 63.8759C95.7954 63.1621 94.0657 62.8052 92.2263 62.8052C90.3319 62.8052 88.561 63.1758 86.9138 63.9171C85.2939 64.6309 83.88 65.6193 82.672 66.8822C81.464 68.1451 80.5168 69.6002 79.8304 71.2475C79.1715 72.8674 78.8421 74.5833 78.8421 76.3953Z" fill="white"/>
<path d="M114.969 75.0363L115.175 80.0605L114.969 79.278C115.436 77.8504 116.315 76.7247 117.605 75.9011C118.895 75.0775 120.323 74.6656 121.888 74.6656C123.371 74.6656 124.565 75.1049 125.471 75.9835C126.377 76.862 126.844 77.9877 126.871 79.3604V90.8502H125.471V79.6899C125.443 78.5917 125.086 77.6857 124.4 76.9718C123.741 76.258 122.794 75.8737 121.559 75.8187C120.433 75.8187 119.39 76.0796 118.429 76.6012C117.468 77.1228 116.685 77.8504 116.081 78.7839C115.505 79.6899 115.217 80.7606 115.217 81.9961V90.8502H113.857V75.0363H114.969Z" fill="white"/>
<path d="M134.408 59.7165H135.767V90.8502H134.408V59.7165Z" fill="white"/>
<path d="M143.296 75.0363H144.655V90.8502H143.296V75.0363ZM142.843 69.6002C142.843 69.2982 142.953 69.0374 143.173 68.8178C143.42 68.5981 143.694 68.4883 143.996 68.4883C144.326 68.4883 144.6 68.5981 144.82 68.8178C145.04 69.0374 145.149 69.312 145.149 69.6414C145.149 69.9709 145.04 70.2454 144.82 70.4651C144.6 70.6847 144.326 70.7945 143.996 70.7945C143.694 70.7945 143.42 70.6847 143.173 70.4651C142.953 70.218 142.843 69.9297 142.843 69.6002Z" fill="white"/>
<path d="M153.296 75.0363L153.502 80.0605L153.296 79.278C153.763 77.8504 154.641 76.7247 155.932 75.9011C157.222 75.0775 158.65 74.6656 160.215 74.6656C161.697 74.6656 162.892 75.1049 163.798 75.9835C164.704 76.862 165.17 77.9877 165.198 79.3604V90.8502H163.798V79.6899C163.77 78.5917 163.413 77.6857 162.727 76.9718C162.068 76.258 161.121 75.8737 159.885 75.8187C158.76 75.8187 157.716 76.0796 156.755 76.6012C155.795 77.1228 155.012 77.8504 154.408 78.7839C153.832 79.6899 153.543 80.7606 153.543 81.9961V90.8502H152.184V75.0363H153.296Z" fill="white"/>
<path d="M179.448 91.1385C177.855 91.1385 176.428 90.7816 175.165 90.0678C173.929 89.3265 172.941 88.3381 172.2 87.1026C171.486 85.8397 171.129 84.4395 171.129 82.9021C171.129 81.3646 171.5 79.9644 172.241 78.7015C172.982 77.4386 173.984 76.4365 175.247 75.6952C176.51 74.9539 177.91 74.5833 179.448 74.5833C181.287 74.5833 182.825 75.1186 184.06 76.1894C185.323 77.2327 186.243 78.5779 186.819 80.2252L172.735 85.826L172.323 84.7964L185.625 79.5251L185.296 80.0193C184.774 78.8662 184.005 77.8641 182.989 77.013C182.001 76.1619 180.793 75.7364 179.365 75.7364C178.075 75.7364 176.908 76.0521 175.865 76.6836C174.822 77.315 173.984 78.1799 173.353 79.278C172.749 80.3488 172.447 81.5431 172.447 82.8609C172.447 84.0964 172.735 85.2632 173.312 86.3614C173.916 87.4321 174.739 88.2969 175.783 88.9558C176.826 89.6148 178.048 89.9442 179.448 89.9442C180.381 89.9442 181.26 89.7795 182.083 89.45C182.935 89.0931 183.676 88.6401 184.307 88.091L185.09 89.0382C184.321 89.6697 183.442 90.1776 182.454 90.562C181.493 90.9463 180.491 91.1385 179.448 91.1385Z" fill="white"/>
<rect x="20.7925" y="59.8502" width="30.4211" height="30.4211" fill="white"/>
<path d="M1 67.1579C1 63.2047 4.2047 60 8.15789 60H18V90H8.15789C4.2047 90 1 86.7953 1 82.8421V67.1579Z" fill="white"/>
<path d="M54 60H63.8421C67.7953 60 71 63.2047 71 67.1579V82.8421C71 86.7953 67.7953 90 63.8421 90H54V60Z" fill="white"/>
<path d="M35.4179 74.7968C33.1706 76.052 30.9399 77.2948 28.712 78.5427C27.7608 79.0755 26.8134 79.6155 25.8689 80.1602C25.6767 80.2711 25.4868 80.3988 25.3279 80.552C24.981 80.8863 24.8903 81.3036 25.0351 81.7594C25.1748 82.1995 25.5173 82.4068 25.9502 82.4782C26.1145 82.5053 26.2846 82.5046 26.4521 82.5046C32.7064 82.5059 38.9606 82.5065 45.2149 82.5049C45.9947 82.5047 46.4843 82.045 46.54 81.2939C46.5662 80.9408 46.4519 80.6937 46.1265 80.5181C45.0194 79.9208 43.9268 79.2965 42.8191 78.7001C40.7102 77.5646 38.5947 76.4414 36.4819 75.313C36.4491 75.2954 36.416 75.2782 36.3837 75.2596C36.2095 75.1596 36.0595 75.0327 36.1733 74.814C36.286 74.5973 36.4777 74.6349 36.6575 74.7284C37.1535 74.9866 37.6492 75.2454 38.1412 75.5112C40.7238 76.9067 43.3055 78.3041 45.8866 79.7024C46.0832 79.8089 46.2677 79.9381 46.4666 80.0394C47.095 80.3592 47.2024 80.9014 47.1188 81.4789C46.9708 82.5013 46.2733 83.1104 45.2439 83.111C38.9337 83.1145 32.6235 83.1135 26.3133 83.1117C25.5431 83.1115 24.8999 82.8632 24.5421 82.124C24.153 81.3201 24.4447 80.3248 25.2612 79.8357C26.3642 79.175 27.4897 78.5516 28.6117 77.9231C31.1485 76.5023 33.6889 75.0882 36.2279 73.6713C36.2767 73.6441 36.3234 73.6122 36.3744 73.5899C36.5548 73.5112 36.7374 73.5029 36.8351 73.6989C36.9249 73.879 36.8294 74.0189 36.6597 74.1118C36.251 74.3353 35.8436 74.5614 35.4179 74.7968Z" fill="#1E1E1E"/>
<path d="M36.1889 70.5038C37.0745 70.127 37.4271 69.4197 37.1734 68.5619C36.9954 67.9603 36.3782 67.5594 35.6956 67.602C34.9775 67.6469 34.518 68.0276 34.4059 68.6859C34.3713 68.8889 34.2887 69.0323 34.068 69.005C33.8605 68.9795 33.8095 68.8168 33.821 68.6305C33.8546 68.0883 34.1203 67.677 34.5566 67.3751C35.5312 66.701 36.9816 66.9891 37.5604 67.9645C38.1836 69.0146 37.7883 70.3653 36.6914 70.9323C36.6418 70.9579 36.593 70.9933 36.54 71.0028C36.1057 71.0801 35.9027 71.3098 35.9734 71.7716C36.0018 71.9571 35.8874 72.1003 35.675 72.0911C35.4811 72.0827 35.4014 71.9505 35.3983 71.7702C35.3939 71.5188 35.3997 71.2671 35.3952 71.0157C35.3911 70.7794 35.502 70.6561 35.7355 70.6204C35.8819 70.598 36.0242 70.5489 36.1889 70.5038Z" fill="#1E1E1E"/>
<path d="M36.3906 72.3196C36.5908 72.2801 36.7578 72.3364 36.7672 72.521C36.773 72.637 36.6757 72.8074 36.5734 72.8715C36.0931 73.1721 35.5953 73.4449 35.1031 73.7265C34.932 73.8244 34.7525 73.8527 34.6394 73.6599C34.519 73.4545 34.6349 73.3099 34.8189 73.2059C35.3367 72.9131 35.8537 72.619 36.3906 72.3196Z" fill="#1E1E1E"/>
</g>
<defs>
<clipPath id="clip0_6_45">
<rect width="187" height="91" fill="white"/>
</clipPath>
</defs>
</svg>
